<svg width="1214" height="620" viewBox="0 0 1214 620" fill="none" xmlns="http://www.w3.org/2000/svg">
<path d="M478.691 0.877686V33.1555H511.479V0.877686H478.691ZM506.915 28.6616H483.265V5.37153H506.923L506.915 28.6616Z" fill="#FF9D00"/>
<path d="M1197.22 16.5554V32.2332H1213.15V16.5554H1197.22ZM1210.93 30.0505H1199.44V18.7381H1210.93L1210.93 30.0505Z" fill="#EC008B"/>
<path d="M-32.8045 316.278H13.0989L-9.8528 339.333L-32.8045 316.278Z" fill="#EA3351"/>
<path d="M477.286 591.1C474.414 591.1 471.607 591.938 469.219 593.509C466.831 595.08 464.97 597.312 463.871 599.924C462.772 602.536 462.484 605.41 463.045 608.183C463.605 610.956 464.988 613.503 467.019 615.502C469.049 617.501 471.637 618.863 474.453 619.414C477.27 619.966 480.19 619.683 482.843 618.601C485.496 617.519 487.764 615.687 489.359 613.336C490.955 610.985 491.807 608.221 491.807 605.394C491.807 603.517 491.431 601.658 490.701 599.924C489.972 598.19 488.902 596.614 487.554 595.287C486.205 593.959 484.605 592.906 482.843 592.188C481.081 591.47 479.193 591.1 477.286 591.1V591.1ZM477.286 612.198C475.915 612.198 474.575 611.798 473.435 611.048C472.296 610.297 471.408 609.231 470.884 607.984C470.36 606.737 470.224 605.365 470.493 604.041C470.761 602.718 471.423 601.503 472.393 600.55C473.364 599.596 474.6 598.948 475.945 598.687C477.29 598.426 478.683 598.563 479.949 599.082C481.214 599.6 482.295 600.477 483.055 601.601C483.814 602.725 484.217 604.045 484.214 605.394C484.197 607.192 483.459 608.91 482.162 610.175C480.864 611.44 479.112 612.149 477.286 612.149V612.198Z" fill="#FFC200"/>
</svg>
