<svg width="1459" height="567" viewBox="0 0 1459 567" fill="none" xmlns="http://www.w3.org/2000/svg">
<path d="M1413.96 5.90015V45.4399H1458.37V5.90015H1413.96ZM1452.19 39.935H1420.16V11.405H1452.2L1452.19 39.935Z" fill="#FF9D00"/>
<path d="M0.802261 535.061V566.546H36.1598V535.061H0.802261ZM31.2372 562.163H5.73397V539.444H31.2463L31.2372 562.163Z" fill="#FF9D00"/>
<path d="M137.67 32.3074H65.8146L101.742 0.821838L137.67 32.3074Z" fill="#EC008B"/>
<path d="M1330.41 540.139C1328.44 540.139 1326.51 540.66 1324.87 541.635C1323.23 542.611 1321.95 543.997 1321.2 545.619C1320.44 547.241 1320.25 549.026 1320.63 550.748C1321.01 552.47 1321.96 554.052 1323.36 555.293C1324.75 556.534 1326.53 557.38 1328.46 557.722C1330.4 558.065 1332.4 557.889 1334.22 557.217C1336.04 556.545 1337.6 555.408 1338.7 553.948C1339.79 552.488 1340.38 550.772 1340.38 549.016C1340.38 547.85 1340.12 546.696 1339.62 545.619C1339.12 544.542 1338.38 543.563 1337.46 542.739C1336.53 541.915 1335.43 541.261 1334.22 540.815C1333.01 540.369 1331.72 540.139 1330.41 540.139V540.139ZM1330.41 553.241C1329.47 553.241 1328.55 552.993 1327.76 552.527C1326.98 552.061 1326.37 551.399 1326.01 550.624C1325.65 549.85 1325.56 548.998 1325.74 548.176C1325.93 547.354 1326.38 546.599 1327.05 546.007C1327.71 545.416 1328.56 545.013 1329.49 544.851C1330.41 544.688 1331.37 544.774 1332.23 545.096C1333.1 545.418 1333.85 545.962 1334.37 546.66C1334.89 547.358 1335.17 548.178 1335.16 549.016C1335.15 550.132 1334.64 551.199 1333.75 551.985C1332.86 552.77 1331.66 553.211 1330.41 553.211V553.241Z" fill="#FFC200"/>
</svg>
