<svg width="136" height="126" viewBox="0 0 136 126" fill="none" xmlns="http://www.w3.org/2000/svg">
<path d="M68 0.207916C30.4482 0.207916 0 28.2879 0 62.919C0 97.5501 30.4482 125.63 68 125.63C105.552 125.63 136 97.5501 136 62.919C136 28.2879 105.552 0.207916 68 0.207916ZM68 114.992C36.8232 114.992 11.5357 91.671 11.5357 62.919C11.5357 34.1671 36.8232 10.8464 68 10.8464C99.1768 10.8464 124.464 34.1671 124.464 62.919C124.464 91.671 99.1768 114.992 68 114.992Z" fill="white"/>
<path d="M96.7498 58.3079H72.9998V36.4051C72.9998 35.7711 72.4373 35.2523 71.7498 35.2523H64.2498C63.5623 35.2523 62.9998 35.7711 62.9998 36.4051V58.3079H39.2498C38.5623 58.3079 37.9998 58.8266 37.9998 59.4607V66.3773C37.9998 67.0114 38.5623 67.5301 39.2498 67.5301H62.9998V89.4329C62.9998 90.0669 63.5623 90.5857 64.2498 90.5857H71.7498C72.4373 90.5857 72.9998 90.0669 72.9998 89.4329V67.5301H96.7498C97.4373 67.5301 97.9998 67.0114 97.9998 66.3773V59.4607C97.9998 58.8266 97.4373 58.3079 96.7498 58.3079Z" fill="white"/>
</svg>
