<svg width="309" height="118" viewBox="0 0 309 118" fill="none" xmlns="http://www.w3.org/2000/svg">
<g clip-path="url(#clip0_206_501)">
<path fill-rule="evenodd" clip-rule="evenodd" d="M0.797668 51.59H23.8678H46.9379L23.8678 74.2507L0.797668 51.59Z" fill="url(#paint0_linear_206_501)"/>
<path fill-rule="evenodd" clip-rule="evenodd" d="M0.797668 117.122V96.9473L23.8678 74.2506L34.1212 84.338L0.797668 117.122Z" fill="url(#paint1_linear_206_501)"/>
<path fill-rule="evenodd" clip-rule="evenodd" d="M0.797668 96.9474V74.2507V51.59L23.8678 74.2507L0.797668 96.9474Z" fill="#40FFC9"/>
<path fill-rule="evenodd" clip-rule="evenodd" d="M87.805 116.294H100.768L88.574 98.2804L94.1402 95.7585C95.5496 95.2173 96.7465 94.2474 97.5567 92.9903C98.3669 91.7332 98.7479 90.2544 98.6443 88.7694V80.9156H87.2191V87.2923L70.7771 94.7138V64.8478H59.3885V116.294H70.7771V106.278L78.6868 102.676L87.6585 116.33L87.805 116.294ZM101.464 98.5686C101.464 110.962 110.436 116.978 121.788 116.978C133.14 116.978 142.002 110.962 142.002 98.5686C142.002 86.1755 133.03 80.1951 121.788 80.1951C110.546 80.1951 101.464 86.2475 101.464 98.5686V98.5686ZM112.853 98.5686C112.742 97.4124 112.895 96.2465 113.299 95.1556C113.704 94.0648 114.351 93.0763 115.193 92.2621C116.034 91.4478 117.05 90.8283 118.165 90.4485C119.281 90.0687 120.468 89.9382 121.641 90.0663C122.822 89.9245 124.02 90.0464 125.146 90.4232C126.273 90.7999 127.298 91.4217 128.146 92.2423C128.994 93.0629 129.643 94.0611 130.045 95.1627C130.447 96.2642 130.591 97.4407 130.466 98.6046C130.597 99.7713 130.457 100.952 130.058 102.058C129.659 103.164 129.011 104.167 128.162 104.992C127.313 105.817 126.286 106.442 125.156 106.821C124.027 107.199 122.825 107.322 121.641 107.179C120.447 107.334 119.232 107.219 118.089 106.844C116.946 106.468 115.905 105.842 115.044 105.013C114.183 104.183 113.525 103.172 113.12 102.056C112.715 100.939 112.574 99.7468 112.706 98.5686H112.853ZM168.624 90.0663C174.117 90.0663 175.948 92.5161 175.948 98.9649V116.33H187.556V97.2716C187.556 86.4637 181.99 80.3032 172.908 80.3032C169.633 80.2421 166.447 81.3568 163.947 83.4388C161.446 85.5208 159.803 88.4275 159.322 91.6155H156.466L158.26 85.2028V80.9156H146.982V116.294H158.26V103.18C158.26 93.2367 162.325 90.0303 168.514 90.0303L168.624 90.0663ZM191.694 98.1723C191.694 108.188 198.029 117.014 211.871 117.014C224.322 117.014 230.181 108.98 230.95 103.864H219.561C218.829 106.53 215.899 107.935 211.871 107.935C205.389 107.935 202.387 105.053 202.387 100.982H229.668V97.3797C229.668 86.5718 221.832 80.123 210.663 80.123C199.494 80.123 191.694 86.86 191.694 98.1363V98.1723ZM202.387 94.5697C202.387 91.9037 204.327 89.2377 210.663 89.2377C216.998 89.2377 218.975 91.9037 218.975 94.5697H202.387ZM234.502 98.4965C234.502 110.349 242.704 116.906 254.166 116.906C263.98 116.906 272.952 111.682 273.465 101.595H262.076C261.667 103.304 260.637 104.807 259.181 105.822C257.724 106.837 255.941 107.294 254.166 107.107C253.013 107.205 251.851 107.046 250.769 106.641C249.686 106.236 248.711 105.595 247.915 104.768C247.119 103.94 246.524 102.946 246.174 101.86C245.823 100.774 245.726 99.6244 245.89 98.4965C245.749 97.3812 245.864 96.2489 246.225 95.1828C246.587 94.1166 247.186 93.1436 247.98 92.3352C248.774 91.5268 249.741 90.9034 250.812 90.5108C251.882 90.1182 253.028 89.9663 254.166 90.0663C255.941 89.8791 257.724 90.3359 259.181 91.3509C260.637 92.3659 261.667 93.8692 262.076 95.5784H273.465C272.952 85.491 263.98 80.2311 254.166 80.2311C242.704 80.2311 234.502 86.824 234.502 98.6046V98.4965ZM294.814 106.422V90.7148H306.642V80.9156H294.814V70.7561L283.425 74.3588V81.0237H274.893V90.8229H283.425V110.457C283.33 111.264 283.423 112.081 283.696 112.847C283.968 113.613 284.414 114.308 284.999 114.88C285.584 115.452 286.293 115.887 287.074 116.15C287.854 116.414 288.685 116.5 289.504 116.402H308.07V106.494L294.814 106.422Z" fill="white"/>
<path d="M15.0059 15.5637V16.8246C15.0108 17.5782 14.8635 18.3252 14.5726 19.0223C14.2818 19.7195 13.8531 20.3529 13.3114 20.8857C12.7698 21.4186 12.126 21.8404 11.4174 22.1265C10.7088 22.4127 9.94945 22.5576 9.18348 22.5528H0.797668V0.324459H8.56095C9.32523 0.319608 10.0828 0.464728 10.7894 0.75133C11.496 1.03793 12.1374 1.46027 12.6762 1.99363C13.2149 2.52699 13.6401 3.16068 13.927 3.85763C14.2138 4.55459 14.3565 5.30081 14.3468 6.05267V7.20552C14.3483 8.61162 13.8274 9.96977 12.882 11.0243C13.5616 11.5739 14.1058 12.2679 14.4737 13.0541C14.8415 13.8403 15.0235 14.6983 15.0059 15.5637V15.5637ZM4.02016 3.60287V9.83546H8.56095C8.89894 9.84032 9.23448 9.7784 9.54771 9.65339C9.86094 9.52837 10.1455 9.34279 10.3845 9.10764C10.6235 8.87249 10.8122 8.59255 10.9392 8.28439C11.0663 7.97623 11.1292 7.64612 11.1243 7.3136V6.05267C11.1052 5.3964 10.8268 4.77332 10.3481 4.31585C9.86943 3.85839 9.22829 3.6026 8.56095 3.60287H4.02016ZM11.7834 15.5637C11.7885 15.2281 11.7245 14.8949 11.5952 14.5843C11.4658 14.2737 11.2739 13.9921 11.0309 13.7564C10.788 13.5208 10.4991 13.336 10.1815 13.2132C9.86402 13.0903 9.52451 13.0321 9.18348 13.0418H4.02016V19.3825H9.18348C9.52627 19.3873 9.86658 19.3245 10.1842 19.1977C10.5019 19.0708 10.7905 18.8826 11.0329 18.6441C11.2753 18.4056 11.4667 18.1217 11.5956 17.8092C11.7245 17.4966 11.7884 17.1619 11.7834 16.8246V15.5637Z" fill="white"/>
<path d="M34.3775 12.0689V13.3299H31.155V12.0689C31.1551 11.7347 31.0876 11.4038 30.9565 11.0955C30.8254 10.7871 30.6333 10.5075 30.3913 10.2729C30.1494 10.0382 29.8625 9.85321 29.5473 9.72861C29.232 9.60401 28.8948 9.54231 28.5551 9.54708H28.2255L23.3917 12.7534V22.5527H20.1693V6.34072H23.3917V8.89861L27.0537 6.34072H28.372C29.1518 6.31658 29.9287 6.44691 30.6564 6.72395C31.3841 7.00099 32.0477 7.4191 32.6079 7.95344C33.1682 8.48778 33.6135 9.12744 33.9175 9.83443C34.2215 10.5414 34.3779 11.3013 34.3775 12.0689V12.0689Z" fill="white"/>
<path d="M45.3267 22.5526C44.5655 22.5574 43.8109 22.4135 43.1068 22.1291C42.4026 21.8447 41.7629 21.4256 41.2246 20.8961C40.6864 20.3666 40.2604 19.7372 39.9713 19.0444C39.6823 18.3516 39.536 17.6093 39.5408 16.8604V12.0689C39.536 11.3184 39.6821 10.5743 39.9707 9.87954C40.2593 9.18477 40.6847 8.55301 41.2225 8.02062C41.7602 7.48823 42.3997 7.06572 43.104 6.77741C43.8084 6.4891 44.5638 6.34068 45.3267 6.3407H47.9266C49.4708 6.3407 50.9518 6.9442 52.0437 8.01845C53.1357 9.0927 53.7491 10.5497 53.7491 12.0689V16.8604C53.7491 17.611 53.5983 18.3541 53.3052 19.0471C53.0121 19.7401 52.5827 20.3692 52.0415 20.8982C51.5004 21.4273 50.8582 21.8458 50.152 22.1297C49.4458 22.4137 48.6895 22.5574 47.9266 22.5526H45.3267ZM50.49 16.8604V12.0689C50.5001 11.735 50.4407 11.4026 50.3155 11.0922C50.1903 10.7817 50.0018 10.4997 49.7618 10.2635C49.5217 10.0273 49.235 9.84191 48.9195 9.7187C48.6039 9.5955 48.266 9.53709 47.9266 9.54706H45.3267C44.9887 9.5422 44.6531 9.60412 44.3399 9.72913C44.0267 9.85415 43.7421 10.0397 43.5031 10.2749C43.2641 10.51 43.0755 10.79 42.9484 11.0981C42.8213 11.4063 42.7584 11.7364 42.7633 12.0689V16.8604C42.7633 17.5293 43.0334 18.1707 43.5141 18.6437C43.9948 19.1166 44.6468 19.3823 45.3267 19.3823H47.9266C48.266 19.3923 48.6039 19.3339 48.9195 19.2107C49.235 19.0875 49.5217 18.9021 49.7618 18.6659C50.0018 18.4297 50.1903 18.1477 50.3155 17.8372C50.4407 17.5267 50.5001 17.1943 50.49 16.8604V16.8604Z" fill="white"/>
<path d="M73.0841 6.3407V22.5526H69.8616V20.7873L67.1884 22.5526H64.6983C63.154 22.5526 61.6731 21.9491 60.5812 20.8749C59.4892 19.8006 58.8758 18.3436 58.8758 16.8244V6.3407H62.0983V16.8244C62.0983 17.5028 62.3722 18.1534 62.8598 18.6331C63.3474 19.1128 64.0087 19.3823 64.6983 19.3823H66.1996L69.8616 16.9325V6.3407H73.0841Z" fill="white"/>
<path d="M92.3458 6.3407V23.4893C92.3458 25.0085 91.7324 26.4655 90.6405 27.5398C89.5485 28.614 88.0676 29.2175 86.5233 29.2175H83.96C82.4158 29.2175 80.9348 28.614 79.8429 27.5398C78.751 26.4655 78.1375 25.0085 78.1375 23.4893H81.36C81.36 23.8236 81.4275 24.1545 81.5586 24.4628C81.6897 24.7711 81.8818 25.0508 82.1237 25.2854C82.3656 25.5201 82.6526 25.7051 82.9678 25.8297C83.283 25.9543 83.6203 26.016 83.96 26.0112H86.5233C86.863 26.016 87.2003 25.9543 87.5155 25.8297C87.8308 25.7051 88.1177 25.5201 88.3596 25.2854C88.6015 25.0508 88.7936 24.7711 88.9247 24.4628C89.0559 24.1545 89.1234 23.8236 89.1233 23.4893V20.7873L86.4501 22.5526H83.96C82.4158 22.5526 80.9348 21.9491 79.8429 20.8749C78.751 19.8006 78.1375 18.3436 78.1375 16.8244V12.0689C78.1375 10.5497 78.751 9.0927 79.8429 8.01845C80.9348 6.9442 82.4158 6.3407 83.96 6.3407H86.4501L89.1233 8.14202V6.3407H92.3458ZM89.2332 16.9325V11.9608L85.5712 9.54706H84.1065C83.7668 9.54228 83.4295 9.60399 83.1143 9.72858C82.799 9.85318 82.5121 10.0382 82.2702 10.2728C82.0283 10.5075 81.8362 10.7871 81.7051 11.0954C81.574 11.4038 81.5065 11.7347 81.5065 12.0689V16.8244C81.5065 17.5028 81.7804 18.1534 82.268 18.6331C82.7556 19.1128 83.4169 19.3823 84.1065 19.3823H85.5712L89.2332 16.9325Z" fill="white"/>
<path d="M111.827 12.0689V22.5526H108.605V12.0689C108.605 11.7347 108.537 11.4038 108.406 11.0954C108.275 10.7871 108.083 10.5075 107.841 10.2728C107.599 10.0382 107.312 9.85315 106.997 9.72855C106.682 9.60396 106.344 9.54225 106.005 9.54703H104.54L100.878 11.9608V22.5526H97.6556V0H100.878V8.14199L103.551 6.34067H106.041C107.579 6.35018 109.051 6.95789 110.135 8.03111C111.219 9.10433 111.827 10.5559 111.827 12.0689V12.0689Z" fill="white"/>
<path d="M125.303 9.54703V16.7523C125.298 17.0896 125.362 17.4244 125.491 17.7369C125.62 18.0494 125.811 18.3333 126.054 18.5718C126.296 18.8103 126.585 18.9986 126.902 19.1254C127.22 19.2522 127.56 19.3151 127.903 19.3102H131.309V22.4805H127.903C127.137 22.4853 126.378 22.3404 125.669 22.0543C124.961 21.7681 124.317 21.3463 123.775 20.8135C123.234 20.2806 122.805 19.6472 122.514 18.9501C122.223 18.2529 122.076 17.5059 122.081 16.7523V9.54703H116.991V6.34067H121.971V2.23364H125.303V6.34067H131.309V9.54703H125.303Z" fill="white"/>
<path d="M153.683 9.54703V16.7523C153.678 17.0865 153.741 17.4183 153.868 17.7285C153.994 18.0386 154.182 18.3209 154.421 18.5589C154.659 18.7969 154.944 18.9859 155.257 19.1149C155.57 19.2438 155.907 19.3102 156.246 19.3102H159.652V22.4805H156.246C155.482 22.4854 154.725 22.3403 154.018 22.0537C153.311 21.7671 152.67 21.3447 152.131 20.8114C151.592 20.278 151.167 19.6443 150.88 18.9474C150.594 18.2504 150.451 17.5042 150.461 16.7523V9.54703H145.444V6.34067H150.461V2.23364H153.683V6.34067H159.652V9.54703H153.683Z" fill="white"/>
<path d="M170.601 22.5526C169.84 22.5574 169.085 22.4135 168.381 22.1291C167.677 21.8447 167.037 21.4256 166.499 20.8961C165.961 20.3666 165.535 19.7372 165.246 19.0444C164.957 18.3516 164.811 17.6093 164.815 16.8604V12.0689C164.811 11.3184 164.957 10.5743 165.245 9.87954C165.534 9.18477 165.959 8.55301 166.497 8.02062C167.035 7.48823 167.674 7.06572 168.379 6.77741C169.083 6.4891 169.838 6.34068 170.601 6.3407H173.201C173.966 6.3407 174.723 6.48886 175.429 6.77673C176.136 7.0646 176.778 7.48654 177.318 8.01845C177.859 8.55037 178.288 9.18184 178.58 9.87682C178.873 10.5718 179.024 11.3167 179.024 12.0689V16.8604C179.024 17.611 178.873 18.3541 178.58 19.0471C178.287 19.7401 177.857 20.3692 177.316 20.8982C176.775 21.4273 176.133 21.8458 175.427 22.1297C174.72 22.4137 173.964 22.5574 173.201 22.5526H170.601ZM175.801 16.8604V12.0689C175.806 11.7333 175.742 11.4001 175.613 11.0895C175.484 10.7789 175.292 10.4973 175.049 10.2617C174.806 10.026 174.517 9.84121 174.199 9.71839C173.882 9.59557 173.542 9.53729 173.201 9.54706H170.601C170.263 9.5422 169.928 9.60412 169.614 9.72913C169.301 9.85415 169.017 10.0397 168.778 10.2749C168.539 10.51 168.35 10.79 168.223 11.0981C168.096 11.4063 168.033 11.7364 168.038 12.0689V16.8604C168.038 17.1916 168.104 17.5195 168.233 17.8255C168.362 18.1315 168.551 18.4095 168.789 18.6437C169.027 18.8778 169.309 19.0636 169.62 19.1903C169.931 19.3171 170.265 19.3823 170.601 19.3823H173.201C173.542 19.3921 173.882 19.3338 174.199 19.211C174.517 19.0882 174.806 18.9033 175.049 18.6677C175.292 18.432 175.484 18.1504 175.613 17.8398C175.742 17.5292 175.806 17.1961 175.801 16.8604V16.8604Z" fill="white"/>
<path d="M207.477 6.3407L198.944 29.2175H195.502L198.542 21.2917L193.268 6.3407H196.674L200.336 16.5362L203.998 6.3407H207.477Z" fill="white"/>
<path d="M218.426 22.5526C217.665 22.5574 216.91 22.4135 216.206 22.1291C215.502 21.8447 214.862 21.4256 214.324 20.8961C213.786 20.3666 213.36 19.7372 213.071 19.0444C212.782 18.3516 212.635 17.6093 212.64 16.8604V12.0689C212.635 11.3184 212.781 10.5743 213.07 9.87954C213.359 9.18477 213.784 8.55301 214.322 8.02062C214.859 7.48823 215.499 7.06572 216.203 6.77741C216.908 6.4891 217.663 6.34068 218.426 6.3407H221.026C222.57 6.3407 224.051 6.9442 225.143 8.01845C226.235 9.0927 226.848 10.5497 226.848 12.0689V16.8604C226.848 17.611 226.698 18.3541 226.404 19.0471C226.111 19.7401 225.682 20.3692 225.141 20.8982C224.6 21.4273 223.957 21.8458 223.251 22.1297C222.545 22.4137 221.789 22.5574 221.026 22.5526H218.426ZM223.626 16.8604V12.0689C223.631 11.7333 223.567 11.4001 223.438 11.0895C223.308 10.7789 223.116 10.4973 222.873 10.2617C222.63 10.026 222.341 9.84121 222.024 9.71839C221.706 9.59557 221.367 9.53729 221.026 9.54706H218.426C218.088 9.5422 217.752 9.60412 217.439 9.72913C217.126 9.85415 216.841 10.0397 216.602 10.2749C216.363 10.51 216.175 10.79 216.048 11.0981C215.921 11.4063 215.858 11.7364 215.863 12.0689V16.8604C215.863 17.5293 216.133 18.1707 216.613 18.6437C217.094 19.1166 217.746 19.3823 218.426 19.3823H221.026C221.367 19.3921 221.706 19.3338 222.024 19.211C222.341 19.0882 222.63 18.9033 222.873 18.6677C223.116 18.432 223.308 18.1504 223.438 17.8398C223.567 17.5292 223.631 17.1961 223.626 16.8604V16.8604Z" fill="white"/>
<path d="M246.147 6.3407V22.5526H242.888V20.7873L240.214 22.5526H237.724C236.18 22.5526 234.699 21.9491 233.607 20.8749C232.515 19.8006 231.902 18.3436 231.902 16.8244V6.3407H235.161V16.8244C235.156 17.1586 235.219 17.4904 235.345 17.8006C235.472 18.1107 235.66 18.393 235.899 18.631C236.137 18.869 236.421 19.058 236.735 19.1869C237.048 19.3159 237.385 19.3823 237.724 19.3823H239.226L242.888 16.9325V6.3407H246.147Z" fill="white"/>
<path d="M274.673 12.0689V16.8244C274.673 18.3436 274.06 19.8006 272.968 20.8748C271.876 21.9491 270.395 22.5526 268.851 22.5526H266.361L263.687 20.7873V22.5526H260.465V0H263.687V8.14199L266.361 6.34067H268.851C270.395 6.34067 271.876 6.94417 272.968 8.01842C274.06 9.09267 274.673 10.5497 274.673 12.0689V12.0689ZM271.451 12.0689C271.451 11.7347 271.383 11.4038 271.252 11.0954C271.121 10.7871 270.929 10.5075 270.687 10.2728C270.445 10.0382 270.158 9.85315 269.843 9.72855C269.528 9.60396 269.19 9.54225 268.851 9.54703H267.386L263.724 11.9608V16.9325L267.386 19.3823H268.851C269.54 19.3823 270.202 19.1128 270.689 18.6331C271.177 18.1534 271.451 17.5028 271.451 16.8244V12.0689Z" fill="white"/>
<path d="M294.045 6.3407L285.512 29.2175H281.85L284.853 21.2917L279.836 6.3407H283.242L286.904 16.5362L290.566 6.3407H294.045Z" fill="white"/>
<path d="M308.07 10.4838V13.6541H304.408V10.4838H308.07ZM308.07 19.3823V22.5527H304.408V19.3823H308.07Z" fill="white"/>
</g>
<defs>
<linearGradient id="paint0_linear_206_501" x1="45.583" y1="55.4448" x2="6.06266" y2="64.6235" gradientUnits="userSpaceOnUse">
<stop stop-color="#2AA1DB"/>
<stop offset="0.54" stop-color="#1D9DD9"/>
<stop offset="1" stop-color="#0A3E62"/>
</linearGradient>
<linearGradient id="paint1_linear_206_501" x1="26.1016" y1="85.2027" x2="0.312682" y2="105.497" gradientUnits="userSpaceOnUse">
<stop stop-color="#7AC6BA"/>
<stop offset="1" stop-color="#31B5AA"/>
</linearGradient>
<clipPath id="clip0_206_501">
<rect width="307.272" height="117.122" fill="white" transform="translate(0.797668)"/>
</clipPath>
</defs>
</svg>
