<svg width="225" height="85" viewBox="0 0 225 85" fill="none" xmlns="http://www.w3.org/2000/svg">
<path fill-rule="evenodd" clip-rule="evenodd" d="M9.26904 37.3481C10.2068 34.6479 11.1445 31.9326 12.2323 29.2924C13.4701 26.2921 14.4265 23.1869 21.1407 24.207C23.7475 24.612 25.0979 27.5523 24.5727 29.5924C23.3349 33.0577 22.1722 36.5681 20.9156 40.0934C18.749 45.8877 16.9772 51.7719 15.6081 57.7199C14.7454 61.4103 14.2015 64.2155 13.6201 67.3508C13.7326 67.8908 14.0327 68.1009 14.5391 67.9959C25.1916 65.5056 34.8315 53.4746 39.3513 45.1638C40.6016 39.0233 42.0457 32.9077 43.6836 26.8172C44.0399 25.7971 44.415 24.657 44.8464 23.3519C46.403 18.6865 56.8493 17.0513 56.8493 23.7719C56.829 24.5692 56.6518 25.359 56.3241 26.1121C53.7173 33.6128 49.0286 53.2645 49.6288 59.4151C49.6288 60.8252 51.1854 59.6101 51.6918 59.1301C55.2926 55.3297 58.6872 51.3944 61.8755 47.324C65.0638 43.2437 68.7584 38.1282 71.6841 34.0178C70.5963 33.0577 67.2018 30.9126 71.0277 24.702C72.9283 21.7404 75.6634 19.1726 79.0171 17.2013C82.0366 15.6112 87.0816 15.0111 89.5947 17.6064C92.1078 20.2016 91.3013 22.1068 91.1513 24.612C91.1513 25.7221 99.197 25.7671 106.718 23.7269C108.438 22.0333 110.272 20.4157 112.213 18.8815C119.94 12.7159 132.28 6.08534 143.795 9.28063C147.921 10.6457 150.059 13.316 150.772 17.2313C152.647 27.1622 139.144 35.413 129.523 38.2332C121.009 40.6934 118.158 40.5284 111.594 38.8333C111.275 38.7583 110.619 39.0283 110.3 39.5833C93.4206 70.3211 153.848 41.5485 167.989 30.3575C169.02 29.5174 168.851 29.4124 168.307 28.5273C166.033 25.2023 164.961 21.4362 165.213 17.6514C165.953 14.1684 167.721 10.877 170.37 8.05052C174.103 3.71513 182.73 -0.200219 189.444 0.90988C195.239 1.47993 197.808 5.06525 195.07 9.10061C194.283 10.2431 193.094 11.1759 191.65 11.7838C190.207 12.3917 188.573 12.6479 186.949 12.5209C185.205 11.7708 184.268 11.0208 182.298 11.5458C179.466 12.2059 177.816 15.5512 177.929 17.1413C178.041 18.7315 179.11 22.1068 180.235 22.9018C180.373 23.0053 180.535 23.0853 180.712 23.1369C180.89 23.1885 181.078 23.2106 181.267 23.2019C181.961 22.9918 182.823 22.7068 183.855 22.3168C190.475 19.5715 203.022 16.3163 210.674 16.4963C213.562 16.4963 216.3 16.4963 219.188 16.6463C220.445 16.8713 223.108 17.2313 223.821 18.0414C224.134 18.9339 224.267 19.8606 224.215 20.7867C224.268 22.5691 223.485 24.3029 222.02 25.6471C221.295 26.3556 220.301 26.8558 219.188 27.0722C216.873 27.3578 214.51 27.2814 212.231 26.8472C203.261 26.5584 194.355 28.1787 186.424 31.5426C185.299 32.0076 185.524 33.0427 185.655 35.1279C185.781 37.0823 185.611 39.0417 185.149 40.9634C184.365 43.8308 182.873 46.544 180.76 48.9442C178.027 52.0804 174.281 54.564 169.92 56.1298C163.675 58.815 153.323 58.8 150.584 52.5445C145.58 55.3219 140.217 57.6605 134.587 59.5201C119.096 64.4705 98.4468 62.5204 95.915 47.519C95.2724 43.5707 95.8586 39.5566 97.6216 35.833C93.5189 36.17 89.3838 36.17 85.2811 35.833C84.4184 35.758 83.7433 36.313 83.2181 36.9431C80.8926 40.0484 78.7358 43.3787 76.3915 46.5439C74.2285 49.4542 71.9529 52.4145 69.5648 55.4247C67.1768 58.435 64.6762 61.2503 62.063 63.8705C60.0503 66.0315 57.7064 67.9819 55.0864 69.676L52.517 70.8611C51.6926 71.2377 50.8337 71.5637 49.9476 71.8362C48.5504 72.1308 47.0903 72.1814 45.6664 71.9847C44.2426 71.788 42.8883 71.3485 41.6956 70.6961C40.0505 70.0041 38.7672 68.866 38.076 67.4858C37.7403 66.7939 37.4523 66.0878 37.2133 65.3706C34.7313 67.8126 31.9617 70.0581 28.9425 72.0762C23.6725 75.6315 14.8016 80.357 7.4311 79.4869C5.86825 79.2235 4.43916 78.5932 3.32663 77.6766C2.2141 76.76 1.46872 75.5988 1.18584 74.3414C-1.06471 68.9859 7.11227 43.6637 9.26904 37.3481ZM164.688 47.369C165.502 47.4283 166.324 47.3537 167.101 47.1499C167.878 46.9461 168.595 46.6174 169.208 46.1839C170.347 45.4663 171.273 44.5564 171.922 43.5191C172.57 42.4818 172.924 41.3428 172.959 40.1834C172.959 39.1183 172.171 39.3133 171.421 39.7333C168.438 41.4479 165.741 43.4593 163.394 45.7189C162.775 46.769 163.544 47.564 164.688 47.444V47.369ZM119.677 30.7175C125.735 30.7925 131.586 27.7923 136.068 23.7569C138.788 21.3117 139.707 17.5614 133.236 19.0915C129.957 20.0535 126.901 21.4479 124.197 23.2169C121.49 25.0446 118.98 27.0519 116.695 29.2174C115.063 30.7175 118.57 30.7175 119.639 30.7175H119.677ZM15.0267 11.9959C15.3597 13.8395 16.5857 15.5044 18.44 16.6313C19.4395 17.2296 20.6126 17.6151 21.8493 17.7515C23.086 17.888 24.3458 17.7709 25.5105 17.4114C28.1656 16.9614 30.5029 15.7123 32.0389 13.9225C33.5748 12.1327 34.1919 9.93906 33.7625 7.79549C33.6515 6.80104 33.2446 5.84227 32.5758 4.99931C31.9069 4.15635 30.9955 3.45369 29.9178 2.95006C27.904 2.06665 25.555 1.80509 23.3162 2.215C20.7915 2.68781 18.5859 3.91045 17.1459 5.6353C15.4505 7.46142 14.6923 9.73703 15.0267 11.9959V11.9959Z" fill="white"/>
<path fill-rule="evenodd" clip-rule="evenodd" d="M166.001 66.6157C167.146 66.5101 168.306 66.6339 169.376 66.9757C172.058 68.0858 170.689 73.7113 169.489 75.2864C169.001 75.9315 167.764 76.3665 165.738 76.5766C151.203 78.1667 137.456 79.7118 122.603 80.8819C117.326 81.302 109.893 81.982 100.303 82.9221C91.5451 83.6722 83.837 83.9722 75.1724 84.7073C74.1963 84.8404 73.1926 84.725 72.303 84.3773C70.5213 83.5222 70.2212 79.2918 71.7403 78.1067C72.7156 77.3416 85.0373 75.3614 86.5377 75.1064C96.4323 73.2627 106.451 71.8753 116.545 70.9511C131.342 69.2859 151.11 67.2157 166.001 66.6157Z" fill="url(#paint0_linear_103_1184)"/>
<path style="mix-blend-mode:multiply" fill-rule="evenodd" clip-rule="evenodd" d="M23.5412 63.7206C30.4992 58.7252 36.3506 50.8345 39.5013 44.939C39.07 46.9491 38.6574 48.9593 38.2823 50.9395C37.926 53.1897 37.5884 55.4399 37.232 57.5851C36.8941 59.7648 36.725 61.9592 36.7257 64.1557C36.7975 64.661 36.9103 65.1621 37.0632 65.6558C34.6068 67.9896 31.8886 70.1388 28.9425 72.0764C26.2739 73.8884 23.398 75.4957 20.353 76.8768L23.5412 63.7206Z" fill="url(#paint1_linear_103_1184)"/>
<path style="mix-blend-mode:multiply" fill-rule="evenodd" clip-rule="evenodd" d="M91.1513 24.7171C92.089 25.8272 100.303 25.4672 106.718 23.7271C104.516 25.8865 102.516 28.1729 100.735 30.5677C100.039 31.4196 99.4125 32.3065 98.8594 33.2229C98.3343 34.108 97.8842 34.9931 97.4716 35.8931C93.2702 36.3788 89.0066 36.4141 84.7935 35.9981L91.1513 24.7171Z" fill="url(#paint2_linear_103_1184)"/>
<path style="mix-blend-mode:multiply" fill-rule="evenodd" clip-rule="evenodd" d="M71.6654 34.018C70.6151 33.2529 67.2205 30.8827 71.0277 24.7022C72.5454 22.3854 74.5501 20.2947 76.9541 18.5216C86.3126 11.381 72.303 33.0579 71.6654 34.018Z" fill="url(#paint3_linear_103_1184)"/>
<path style="mix-blend-mode:multiply" fill-rule="evenodd" clip-rule="evenodd" d="M116.732 29.2172C115.101 30.7174 118.608 30.7174 119.658 30.7174C122.653 30.7086 125.593 30.078 128.191 28.8872L129.523 38.218C121.009 40.6783 118.158 40.5132 111.594 38.8181C111.275 38.7431 110.619 39.0131 110.3 39.5682C111.938 35.9309 114.096 32.4575 116.732 29.2172V29.2172Z" fill="url(#paint4_linear_103_1184)"/>
<path style="mix-blend-mode:multiply" fill-rule="evenodd" clip-rule="evenodd" d="M123.615 51.7943C138.825 47.7289 160.224 36.4029 167.989 30.2974H168.101L167.989 30.3874C162.1 35.0378 153.154 39.5382 150.847 45.8988C149.822 48.0212 149.73 50.3592 150.584 52.5293C145.574 55.3027 140.212 57.6459 134.587 59.52C132.49 60.1835 130.333 60.7201 128.135 61.1251L123.615 51.7943Z" fill="url(#paint5_linear_103_1184)"/>
<path style="mix-blend-mode:multiply" fill-rule="evenodd" clip-rule="evenodd" d="M203.697 17.0362C205.97 16.6743 208.282 16.4934 210.599 16.4961C213.487 16.4961 216.225 16.4961 219.113 16.6461C220.37 16.8712 223.033 17.2312 223.746 18.0263C224.055 18.9245 224.188 19.8557 224.14 20.7865C224.193 22.569 223.41 24.3027 221.945 25.6469C221.22 26.3554 220.226 26.8557 219.113 27.0721C216.792 27.3573 214.423 27.2809 212.137 26.847C209.321 26.7024 206.493 26.7828 203.697 27.0871V17.0362Z" fill="url(#paint6_linear_103_1184)"/>
<path style="mix-blend-mode:multiply" fill-rule="evenodd" clip-rule="evenodd" d="M167.989 30.3124C169.02 29.4723 168.851 29.3673 168.307 28.4822C166.033 25.1572 164.961 21.3911 165.213 17.6062C165.324 16.9227 165.493 16.2461 165.719 15.5811H178.116C177.933 16.0678 177.839 16.573 177.835 17.0812C177.947 18.6863 179.035 22.0466 180.16 22.8417C180.298 22.9452 180.46 23.0252 180.637 23.0767C180.815 23.1283 181.003 23.1504 181.192 23.1417C176.374 24.9997 171.925 27.4159 167.989 30.3124V30.3124Z" fill="url(#paint7_linear_103_1184)"/>
<path style="mix-blend-mode:multiply" fill-rule="evenodd" clip-rule="evenodd" d="M170.427 45.224C172.015 43.8513 172.904 42.0537 172.921 40.1835C172.921 39.1184 172.133 39.3134 171.364 39.7335C176.115 36.7291 181.129 34.0018 186.368 31.5728C185.337 32.0528 185.543 33.0729 185.674 35.1281C185.8 37.0825 185.63 39.0418 185.168 40.9636C184.812 42.4385 184.219 43.8704 183.405 45.224H170.427Z" fill="url(#paint8_linear_103_1184)"/>
<defs>
<linearGradient id="paint0_linear_103_1184" x1="70.8214" y1="75.6765" x2="203.097" y2="75.6765" gradientUnits="userSpaceOnUse">
<stop offset="0.55" stop-color="white"/>
<stop offset="0.59" stop-color="#DFD1E0"/>
<stop offset="0.64" stop-color="#C4A9C5"/>
<stop offset="0.68" stop-color="#AC86AE"/>
<stop offset="0.73" stop-color="#996A9B"/>
<stop offset="0.78" stop-color="#8A548C"/>
<stop offset="0.84" stop-color="#7F4582"/>
<stop offset="0.9" stop-color="#793C7C"/>
<stop offset="1" stop-color="#77397A"/>
</linearGradient>
<linearGradient id="paint1_linear_103_1184" x1="24.5727" y1="62.8656" x2="52.7938" y2="46.4178" gradientUnits="userSpaceOnUse">
<stop stop-color="white"/>
<stop offset="0.09" stop-color="#DFD1E0"/>
<stop offset="0.19" stop-color="#C4A9C5"/>
<stop offset="0.29" stop-color="#AC86AE"/>
<stop offset="0.4" stop-color="#996A9B"/>
<stop offset="0.51" stop-color="#8A548C"/>
<stop offset="0.64" stop-color="#7F4582"/>
<stop offset="0.79" stop-color="#793C7C"/>
<stop offset="1" stop-color="#77397A"/>
</linearGradient>
<linearGradient id="paint2_linear_103_1184" x1="83.687" y1="33.4179" x2="106.422" y2="23.0782" gradientUnits="userSpaceOnUse">
<stop stop-color="white"/>
<stop offset="0.2" stop-color="#E1D4E2"/>
<stop offset="0.75" stop-color="#926596"/>
<stop offset="1" stop-color="#733978"/>
</linearGradient>
<linearGradient id="paint3_linear_103_1184" x1="74.7223" y1="17.0815" x2="74.7223" y2="34.018" gradientUnits="userSpaceOnUse">
<stop stop-color="white"/>
<stop offset="0.2" stop-color="#E2D4E2"/>
<stop offset="0.75" stop-color="#956598"/>
<stop offset="1" stop-color="#76397A"/>
</linearGradient>
<linearGradient id="paint4_linear_103_1184" x1="129.523" y1="34.4377" x2="110.3" y2="34.4377" gradientUnits="userSpaceOnUse">
<stop stop-color="white"/>
<stop offset="0.2" stop-color="#E1D4E2"/>
<stop offset="0.75" stop-color="#946598"/>
<stop offset="1" stop-color="#75397A"/>
</linearGradient>
<linearGradient id="paint5_linear_103_1184" x1="125.247" y1="57.2398" x2="166.249" y2="27.6425" gradientUnits="userSpaceOnUse">
<stop stop-color="white"/>
<stop offset="0.2" stop-color="#E1D4E2"/>
<stop offset="0.75" stop-color="#946598"/>
<stop offset="1" stop-color="#75397A"/>
</linearGradient>
<linearGradient id="paint6_linear_103_1184" x1="203.697" y1="21.8666" x2="224.14" y2="21.8666" gradientUnits="userSpaceOnUse">
<stop stop-color="white"/>
<stop offset="1" stop-color="#77397A"/>
</linearGradient>
<linearGradient id="paint7_linear_103_1184" x1="173.146" y1="16.6311" x2="173.146" y2="41.0383" gradientUnits="userSpaceOnUse">
<stop stop-color="white"/>
<stop offset="0.06" stop-color="#F3EDF3"/>
<stop offset="0.24" stop-color="#CEB7CE"/>
<stop offset="0.41" stop-color="#B08AB0"/>
<stop offset="0.58" stop-color="#996799"/>
<stop offset="0.74" stop-color="#884D88"/>
<stop offset="0.88" stop-color="#7E3E7E"/>
<stop offset="1" stop-color="#7A397A"/>
</linearGradient>
<linearGradient id="paint8_linear_103_1184" x1="178.36" y1="45.224" x2="178.36" y2="31.5728" gradientUnits="userSpaceOnUse">
<stop stop-color="white"/>
<stop offset="0.06" stop-color="#F3EDF3"/>
<stop offset="0.24" stop-color="#CEB7CE"/>
<stop offset="0.41" stop-color="#B08AB0"/>
<stop offset="0.58" stop-color="#996799"/>
<stop offset="0.74" stop-color="#884D88"/>
<stop offset="0.88" stop-color="#7E3E7E"/>
<stop offset="1" stop-color="#7A397A"/>
</linearGradient>
</defs>
</svg>
