<svg width="101" height="309" viewBox="0 0 101 309" fill="none" xmlns="http://www.w3.org/2000/svg">
<path fill-rule="evenodd" clip-rule="evenodd" d="M68.2185 78.5101L103.902 119.22H103.377C108.1 129.996 110.724 141.97 110.724 155.14C110.724 167.713 108.1 180.285 103.377 190.462C112.823 185.673 123.318 182.679 134.863 182.679C145.883 182.679 156.378 185.673 165.823 190.462V189.864L202.032 231.172L201.507 230.573C205.705 241.349 208.329 253.323 208.329 266.494H191.537C191.537 248.534 185.239 232.37 175.269 220.995C164.774 209.021 150.605 201.837 135.387 201.837C120.169 201.837 106.001 209.021 95.5059 220.995C85.5355 232.37 79.2383 248.534 79.2383 266.494H61.9213C61.9213 253.323 64.0203 241.349 68.7431 230.573C59.2975 235.961 48.8025 238.356 37.7826 238.356V219.199C53.0006 219.199 67.169 212.014 77.1394 200.64C87.6346 188.666 93.9314 172.502 93.9314 155.14C93.9314 137.18 87.6346 121.016 77.1394 109.641C67.169 97.6678 53.0006 90.4836 37.7826 90.4836V71.3259C48.8025 70.7272 58.7728 73.7207 68.2185 78.5101ZM161.101 296.428C167.922 288.645 172.12 277.869 172.12 266.494C172.12 254.52 167.922 243.744 161.101 235.962C154.279 228.179 145.358 223.39 134.863 223.39C124.368 223.39 115.447 228.179 108.625 235.962C101.803 243.744 97.0801 254.52 97.0801 266.494C97.0801 278.467 101.803 288.645 108.625 296.428C114.922 304.21 124.368 309 134.863 309C145.358 309 154.279 304.21 161.101 296.428ZM134.863 289.842C140.11 289.842 145.883 287.448 149.556 283.257C153.229 279.066 155.328 273.079 155.328 266.494C155.328 259.908 153.229 253.922 149.556 249.132C145.883 244.942 141.16 242.547 134.863 242.547C129.09 242.547 123.843 244.942 120.169 249.132C115.971 253.922 113.872 259.31 113.872 266.494C113.872 272.481 115.971 279.066 120.169 283.257C123.843 286.849 129.09 289.842 134.863 289.842ZM11.0198 185.074C17.8416 192.857 27.2875 197.646 37.7826 197.646C47.753 197.646 57.1986 192.857 64.0205 185.074C70.8423 177.291 75.0403 167.114 75.0403 155.14C75.0403 143.167 70.8423 132.391 64.0205 124.608C57.1986 116.825 47.753 112.036 37.7826 112.036C27.2875 112.036 17.8416 116.825 11.0198 124.608C4.19793 132.391 0 143.167 0 155.14C0 166.515 4.19793 177.291 11.0198 185.074ZM16.7923 154.542C16.7923 160.529 18.8912 167.114 22.5645 171.305C26.7626 175.495 31.4855 177.89 37.7826 177.89C43.0302 177.89 48.8024 175.495 52.4758 171.305C56.1491 167.114 58.248 161.127 58.248 154.542C58.248 147.956 56.1491 141.97 52.4758 137.18C48.8024 132.989 43.5549 130.595 37.7826 130.595C32.0103 130.595 26.7626 132.989 22.5645 137.18C19.416 142.568 16.7923 147.956 16.7923 154.542Z" fill="white" fill-opacity="0.1"/>
<path fill-rule="evenodd" clip-rule="evenodd" d="M149.373 26.3335C145.716 22.1441 140.492 19.7503 134.746 19.7503C128.999 19.7503 123.775 22.1441 120.118 26.3335C115.939 31.1213 113.85 36.5078 113.85 43.6896C113.85 49.6745 115.939 56.2577 120.118 60.4471C123.775 64.6365 128.477 67.0303 134.746 67.0303C139.97 67.0303 145.716 64.6365 149.373 60.4471C153.029 56.2577 155.119 50.273 155.119 43.6896C155.119 36.5078 153.029 31.1213 149.373 26.3335ZM165.567 189.121C161.387 178.947 158.776 166.379 158.776 154.409C158.776 141.243 161.387 129.273 165.567 118.5C156.686 123.887 145.716 126.28 134.746 126.28C123.775 126.28 113.328 123.887 103.924 118.5L68.4019 77.803H68.9242C64.2227 67.6287 62.1332 55.0608 62.1332 42.4926H78.8498C78.8498 59.8486 85.1183 76.0076 95.0438 87.9773C105.492 99.3485 119.596 106.53 134.746 106.53C149.895 106.53 163.999 99.3485 174.447 87.9773C184.373 76.0076 190.641 59.8486 190.641 42.4926H207.358C207.358 55.0608 204.746 67.6287 200.567 77.803C209.448 73.0151 220.418 70.0227 231.388 70.0227V89.1743C216.239 89.1743 202.134 96.3562 191.686 108.326C181.761 119.697 175.492 135.856 175.492 153.811C175.492 171.167 181.761 187.326 191.686 199.296C202.134 210.667 216.239 217.848 231.388 217.848V237C220.94 237 209.97 234.606 201.089 229.818L165.567 189.121ZM134.746 0C145.194 0 154.074 4.78809 160.865 12.5684C167.656 20.3487 171.835 31.1213 171.835 43.0909C171.835 55.0606 167.656 65.2349 160.865 73.0152C154.074 80.7955 145.194 85.5835 134.746 85.5835C124.298 85.5835 115.417 80.7955 108.626 73.0152C101.835 65.2349 97.1335 55.0606 97.1335 43.0909C97.1335 31.1213 101.835 20.3487 108.626 12.5684C114.895 4.78809 124.298 0 134.746 0ZM246.015 171.167C250.194 166.977 252.284 160.993 252.284 154.409C252.284 147.826 250.194 141.841 246.015 137.053C242.358 132.864 237.657 130.47 231.388 130.47C225.642 130.47 220.418 132.864 216.761 137.053C213.104 141.841 210.492 147.227 210.492 154.409C210.492 160.394 213.104 166.977 216.761 171.167C220.418 175.356 225.119 177.75 231.388 177.75C237.134 177.75 242.358 175.356 246.015 171.167ZM269 154.409C269 142.44 264.299 131.667 257.508 123.886C250.717 116.106 241.836 111.318 231.388 111.318C220.94 111.318 212.06 116.106 205.269 123.886C198.477 131.667 194.298 142.44 194.298 154.409C194.298 165.78 198.477 176.553 205.269 184.333C212.06 192.114 220.94 196.901 231.388 196.901C241.836 196.901 250.717 192.114 257.508 184.333C264.299 177.152 269 166.379 269 154.409Z" fill="white" fill-opacity="0.1"/>
</svg>
