<svg width="172" height="100" viewBox="0 0 172 100" fill="none" xmlns="http://www.w3.org/2000/svg">
<path fill-rule="evenodd" clip-rule="evenodd" d="M33.3537 88.76C36.2695 86.4293 39.3472 84.6813 42.749 83.3217C51.4963 79.243 59.7576 75.1643 59.2717 61.7629L57.0039 13.5956H46.1507L33.1917 8.35159L20.3947 13.5956H9.54153L7.43569 61.7629C6.94973 75.1643 15.2111 79.243 23.9584 83.3217C27.1982 84.6813 30.4379 86.4293 33.3537 88.76ZM0.956192 61.5687L3.22402 8.54582L3.386 5.63247H19.4228L33.3537 0L47.2846 5.63247H63.3214L63.4834 8.54582L65.9132 61.3745C66.3991 68.9492 63.9693 76.1355 59.4337 81.3795C55.384 85.8466 50.2004 88.1773 45.0168 90.7022C42.587 91.8675 37.5654 94.004 35.9455 96.5289L33.3537 100.413L30.7619 96.5289C29.142 94.004 24.1204 91.8675 21.6906 90.7022C19.5848 89.7311 17.3169 88.76 15.2111 87.4004C5.81582 82.3506 0.47023 74.5817 0.956192 61.5687Z" fill="white"/>
<path fill-rule="evenodd" clip-rule="evenodd" d="M33.3537 94.1984C39.3472 84.8757 63.3213 86.4295 62.5114 61.7631L60.0816 9.71133H46.6366L33.1917 4.07886L19.9087 9.71133H6.46374L4.03393 61.5689C3.22399 86.4295 27.1981 84.8757 33.3537 94.1984Z" fill="#11366E"/>
<path fill-rule="evenodd" clip-rule="evenodd" d="M44.0449 87.7888C39.6713 89.731 35.7836 91.6733 33.8397 94.5866L33.3537 95.3635L32.8678 94.5866C30.9239 91.6733 27.0362 89.9253 22.6626 87.7888C13.5913 83.7101 2.9001 78.6603 3.38607 61.5687L5.81588 8.74001H19.7468L33.3537 3.30176L46.9607 8.74001H60.7296L63.1594 61.5687C63.6454 78.6603 53.1162 83.7101 44.0449 87.7888ZM33.3537 92.8386C35.6216 89.9253 39.5093 88.1773 43.7209 86.235C52.3063 82.1563 62.5115 77.495 62.0255 61.5687L59.4337 10.488H46.6367L33.3537 5.04977L20.0708 10.488H7.11178L4.84395 61.7629C4.35799 77.6892 14.5632 82.3506 23.1485 86.4293C27.1982 88.1773 31.0859 89.9253 33.3537 92.8386Z" fill="#46D2CA"/>
<path fill-rule="evenodd" clip-rule="evenodd" d="M33.3537 90.3136C35.1355 88.5656 37.2414 87.206 39.5092 86.2349C42.7489 84.6811 45.9887 83.3216 49.0664 81.5736C56.3559 77.4949 60.7295 72.0566 60.4056 61.7628L58.9477 30.8813H7.75964L6.30175 61.7628C5.81579 67.2011 7.59765 72.6393 10.8374 76.5238C12.7813 78.6602 15.0491 80.4082 17.6409 81.7678C20.7186 83.5158 23.9584 84.8754 27.1981 86.4292C29.304 87.206 31.4098 88.5656 33.3537 90.3136Z" fill="#FDFDFD"/>
<path fill-rule="evenodd" clip-rule="evenodd" d="M6.62579 56.9075L6.4638 61.763C5.97784 67.2013 7.7597 72.6395 10.9995 76.524C12.9433 78.6605 15.2111 80.4085 17.8029 81.768C20.8807 83.516 24.1204 84.8756 27.3602 86.4294C29.304 87.4005 31.2479 88.5658 33.0297 90.1196V57.1017L6.62579 56.9075Z" fill="#E3007E"/>
<path fill-rule="evenodd" clip-rule="evenodd" d="M60.0816 56.9072L58.7857 30.8813H33.3536V56.9072H60.0816Z" fill="#E3007E"/>
<path fill-rule="evenodd" clip-rule="evenodd" d="M11.8094 18.6458L14.4012 20.3938L11.8094 21.9475L9.0556 20.3938L11.8094 18.6458Z" fill="#FDFDFD"/>
<path fill-rule="evenodd" clip-rule="evenodd" d="M54.2501 18.6458L57.0039 20.3938L54.2501 21.9475L51.4963 20.3938L54.2501 18.6458Z" fill="#FDFDFD"/>
<path fill-rule="evenodd" clip-rule="evenodd" d="M60.7296 57.8787H34.1637V91.6735H32.3818V57.8787H5.81589V55.7422H32.3818V29.7163H34.1637V55.7422H60.7296V57.8787Z" fill="#11366E"/>
<path fill-rule="evenodd" clip-rule="evenodd" d="M25.0923 49.5267L26.3882 50.3036V41.952L25.0923 41.1751V49.5267ZM16.669 48.7498L20.2327 46.6134L23.7964 48.7498V40.3982L20.2327 38.2618L16.669 40.5925V48.7498ZM12.9433 40.7867L15.6971 39.0387L18.6128 37.2907L16.669 36.1253V31.6582H17.9649V35.1542L20.0707 36.3196L22.0146 35.1542V31.6582H23.4725V36.1253L21.6906 37.2907L24.6064 39.2329L27.8461 41.1751V53.0227L25.0923 51.2747V54.965H23.7964V50.4978L20.2327 48.3614L16.669 50.4978V54.965H15.2111V51.2747L12.4573 52.8285V40.9809L12.9433 40.7867ZM15.2111 41.1751L13.9152 41.952V50.3036L15.2111 49.5267V41.1751Z" fill="#11366E"/>
<path fill-rule="evenodd" clip-rule="evenodd" d="M48.4185 75.7472L37.8893 63.1227V81.5739L48.4185 75.7472ZM37.4033 60.4036L58.7857 60.2094L50.5243 75.9415L50.6863 76.1357L50.2003 76.3299L50.0383 76.5241L36.4314 84.0988V59.2383L37.4033 60.4036ZM48.2565 61.9574H56.3559L50.0383 73.9992L48.2565 61.9574ZM48.5805 73.6108L38.8612 61.9574H47.1226H46.9606L48.5805 73.6108Z" fill="#11366E"/>
<path fill-rule="evenodd" clip-rule="evenodd" d="M37.0793 59.4318C37.8893 59.2376 38.6992 60.0145 38.6992 60.9856C38.6992 61.9567 38.2133 62.9278 37.4033 62.9278C37.2413 62.9278 37.2413 62.9278 37.0793 62.9278C36.2694 62.7336 35.6215 61.9567 35.7834 60.9856C35.9454 60.2087 36.4314 59.626 37.0793 59.4318ZM47.6085 59.4318C48.4185 59.626 49.0664 60.4029 48.9044 61.374C48.9044 62.1509 48.2565 62.9278 47.6085 62.9278C46.7986 63.1221 45.9887 62.3452 45.9887 61.374C45.8267 60.4029 46.4746 59.4318 47.2846 59.4318C47.2846 59.4318 47.4465 59.4318 47.6085 59.4318ZM57.4898 59.4318C58.2997 59.4318 58.9477 60.2087 58.9477 61.1798C58.9477 62.1509 58.2997 62.9278 57.4898 62.9278C56.6798 62.9278 56.0319 62.1509 56.0319 61.1798C56.0319 60.2087 56.6798 59.4318 57.4898 59.4318ZM49.5524 74.1928C50.3623 74.1928 51.0103 74.9697 51.0103 75.9408C51.0103 76.9119 50.3623 77.6888 49.5524 77.6888C48.7424 77.6888 48.0945 76.9119 48.0945 75.9408C48.0945 74.9697 48.7424 74.1928 49.5524 74.1928ZM37.0793 81.379C37.8893 81.379 38.5372 82.1559 38.5372 83.127C38.5372 84.0981 37.8893 84.875 37.0793 84.875C36.2694 84.875 35.6215 84.0981 35.6215 83.127C35.6215 82.3501 36.2694 81.379 37.0793 81.379Z" fill="#FDFDFD"/>
<path fill-rule="evenodd" clip-rule="evenodd" d="M37.7274 60.5977C37.5655 60.4035 37.4035 60.4035 37.0795 60.4035C36.5935 60.4035 36.2696 60.792 36.2696 61.3746C36.2696 61.5689 36.4315 61.9573 36.4315 62.1515C36.5935 62.3458 36.7555 62.54 36.9175 62.54C37.4035 62.54 37.7274 62.1515 37.7274 61.5689C37.8894 60.9862 37.8894 60.792 37.7274 60.5977ZM37.0795 58.6555C37.7274 58.6555 38.2134 58.8497 38.6994 59.4324C39.0233 59.8209 39.3473 60.5977 39.3473 61.1804C39.3473 61.9573 39.1853 62.54 38.6994 63.1226C38.3754 63.7053 37.7274 63.8995 37.0795 63.8995C36.4315 63.8995 35.9456 63.5111 35.6216 63.1226C35.2976 62.54 34.9737 61.9573 34.9737 61.1804C34.9737 59.8209 35.9456 58.6555 37.0795 58.6555ZM48.0946 60.5977C47.9327 60.4035 47.7707 60.2093 47.6087 60.2093C47.4467 60.2093 47.2847 60.4035 47.1227 60.4035C46.9607 60.5977 46.7987 60.792 46.7987 60.9862C46.7987 61.1804 46.9607 61.5689 47.1227 61.7631C47.2847 61.9573 47.4467 62.1515 47.6087 62.1515C47.7707 62.1515 48.0946 61.9573 48.2566 61.7631C48.4186 61.5689 48.4186 61.3746 48.4186 60.9862C48.4186 60.9862 48.2566 60.792 48.0946 60.5977ZM47.6087 58.6555C48.2566 58.6555 48.7426 58.8497 49.2286 59.4324C49.5525 60.0151 49.8765 60.5977 49.8765 61.1804C49.8765 61.9573 49.7145 62.54 49.2286 63.1226C48.9046 63.7053 48.2566 63.8995 47.6087 63.8995C46.4748 63.8995 45.5028 62.7342 45.3409 61.1804C45.3409 60.4035 45.6648 59.8209 45.9888 59.4324C46.4748 58.8497 46.9607 58.6555 47.6087 58.6555ZM57.9759 60.5977C57.8139 60.4035 57.6519 60.2093 57.4899 60.2093C57.004 60.2093 56.68 60.5977 56.68 61.1804C56.68 61.3746 56.842 61.7631 56.842 61.9573C57.004 62.1515 57.1659 62.3458 57.4899 62.3458C57.6519 62.3458 57.9759 62.1515 57.9759 61.9573C58.1379 61.7631 58.2999 61.5689 58.2999 61.1804C58.2999 60.9862 58.1379 60.5977 57.9759 60.5977ZM57.4899 58.6555C58.1379 58.6555 58.6238 58.8497 58.9478 59.4324C59.4338 59.8209 59.5958 60.5977 59.5958 61.1804C59.5958 62.54 58.6238 63.7053 57.4899 63.8995C56.842 63.8995 56.356 63.7053 55.87 63.1226C55.5461 62.54 55.2221 61.9573 55.2221 61.1804C55.2221 59.8209 56.194 58.6555 57.4899 58.6555ZM50.2005 75.3587C50.0385 75.1645 49.8765 74.9703 49.7145 74.9703C49.5525 74.9703 49.2286 75.1645 49.0666 75.3587C48.9046 75.5529 48.9046 75.7471 48.9046 75.9414C48.9046 76.1356 49.0666 76.524 49.0666 76.524C49.2286 76.7183 49.3905 76.7183 49.7145 76.7183C50.2005 76.7183 50.5245 76.3298 50.5245 75.7471C50.5245 75.7471 50.3625 75.3587 50.2005 75.3587ZM49.7145 73.4165C50.3625 73.4165 50.8484 73.6107 51.1724 74.1934C51.6584 74.5818 51.8204 75.3587 51.8204 75.9414C51.8204 76.7183 51.6584 77.3009 51.1724 77.8836C50.6864 78.272 50.2005 78.6605 49.7145 78.6605C49.2286 78.6605 48.5806 78.4663 48.2566 77.8836C47.4467 76.9125 47.4467 75.1645 48.2566 74.1934C48.5806 73.8049 49.0666 73.4165 49.7145 73.4165ZM37.7274 82.545C37.5655 82.3507 37.4035 82.3507 37.0795 82.3507C36.9175 82.3507 36.7555 82.3507 36.5935 82.545C36.4316 82.7392 36.4315 82.9334 36.4315 83.1276C36.4315 83.3218 36.5935 83.7103 36.5935 83.7103C36.7555 83.9045 36.9175 83.9045 37.0795 84.0987C37.2415 84.0987 37.5655 83.9045 37.7274 83.7103C37.8894 83.5161 38.0514 83.3218 38.0514 83.1276C37.8894 82.9334 37.8894 82.7392 37.7274 82.545ZM37.0795 80.6027C37.7274 80.6027 38.2134 80.797 38.6994 81.3796C39.1853 81.9623 39.3473 82.545 39.3473 83.3219C39.3473 84.6814 38.3754 85.8468 37.2415 85.8468C36.5935 85.8468 36.1076 85.6525 35.7836 85.0699C35.4596 84.4872 35.1357 83.9045 35.1357 83.3219C35.1357 82.545 35.2976 81.9623 35.7836 81.3796C35.9456 80.797 36.5935 80.6027 37.0795 80.6027Z" fill="#11366E"/>
<path fill-rule="evenodd" clip-rule="evenodd" d="M58.6238 37.0965L56.194 38.2618L55.7081 36.9022L58.1379 35.7369L58.6238 37.0965ZM55.0601 51.0805L58.2999 55.1592H56.356L53.9262 52.2459C54.0882 52.2459 55.0601 51.0805 55.0601 51.0805ZM41.7771 54.965L41.9391 54.1881L43.235 54.7708V54.965H41.7771ZM35.4596 35.3484L37.7274 36.5138L37.2415 38.0676L34.9737 36.9022L35.4596 35.3484ZM47.4467 31.6582H46.1508V38.0676L43.883 31.6582H42.4251L44.8549 38.6502L39.0234 31.6582H37.0795L43.721 39.6214L38.5374 36.9022L38.0514 38.456L43.397 41.1751H34.9737V42.9231H43.235L36.4315 46.2249L36.9175 47.7787L43.721 44.4769L34.9737 54.965H36.9175L44.8549 45.448L42.4251 53.0227L43.721 53.6054L46.1508 46.4192V54.965H47.4467V46.2249L50.5245 54.965H51.9823L48.7426 45.6423L52.7923 50.4978L53.7642 49.3325L49.7145 44.6712L58.2999 49.1383L58.7858 47.5845L50.0385 43.1174H58.4618V41.3694H50.2005L55.0601 38.8445L54.5741 37.2907L49.5525 39.8156L56.356 31.6582H54.5741L48.5806 38.8445L51.0104 31.6582H49.5525L47.4467 37.8733V31.6582Z" fill="#FDFDFD"/>
<path fill-rule="evenodd" clip-rule="evenodd" d="M46.7987 34.1836C50.6863 34.1836 53.9261 37.8738 53.9261 42.5352C53.9261 47.1965 50.8483 51.081 46.9606 51.081C43.0729 51.081 39.8332 47.3908 39.8332 42.7294C39.8332 38.0681 42.911 34.1836 46.7987 34.1836Z" fill="#E3007E"/>
<path fill-rule="evenodd" clip-rule="evenodd" d="M50.0383 38.8448C48.2565 36.7083 45.3407 36.7083 43.5588 38.8448C42.7489 39.8159 42.2629 41.1754 42.2629 42.7292C42.2629 44.0888 42.7489 45.6426 43.5588 46.6137C45.3407 48.7501 48.2565 48.7501 50.0383 46.6137C50.8483 45.6426 51.3342 44.0888 51.3342 42.7292C51.4962 41.1754 51.0103 39.8159 50.0383 38.8448ZM46.7986 35.543C50.0383 35.543 52.7921 38.8448 52.7921 42.7292C52.7921 44.6715 52.1442 46.4195 51.0103 47.779C49.8764 49.1386 48.4185 49.9155 46.7986 49.9155C45.1787 49.9155 43.7208 49.1386 42.5869 47.779C41.453 46.4195 40.8051 44.6715 40.8051 42.7292C40.8051 38.8448 43.5588 35.543 46.7986 35.543Z" fill="#FDFDFD"/>
<path fill-rule="evenodd" clip-rule="evenodd" d="M21.3666 60.7918C21.0426 60.4034 20.7187 60.4034 20.3947 60.4034C19.5848 60.4034 18.9368 61.1803 18.9368 62.1514C18.9368 62.5398 19.0988 63.1225 19.4228 63.3167C19.7467 63.7052 20.0707 63.8994 20.3947 63.7052C21.2046 63.7052 21.8526 62.9283 21.8526 62.1514C21.8526 61.763 21.6906 61.1803 21.3666 60.7918ZM20.3947 58.8496C21.0426 58.8496 21.6906 59.2381 22.1766 59.8207C22.6625 60.4034 22.9865 61.3745 22.9865 62.1514C22.9865 63.8994 21.8526 65.259 20.3947 65.0648C19.7467 65.0648 19.0988 64.6763 18.6128 64.0936C18.1269 63.511 17.8029 62.7341 17.8029 61.9572C17.8029 61.1803 18.1269 60.2092 18.6128 59.6265C19.0988 59.2381 19.7467 59.0438 20.3947 58.8496ZM28.1701 71.2799C28.4941 70.8914 28.6561 70.503 28.6561 70.1145C28.6561 69.7261 28.4941 69.1434 28.1701 68.9492C27.6841 68.3665 26.7122 68.3665 26.2262 68.9492C25.9023 69.3377 25.7403 69.7261 25.7403 70.1145C25.7403 70.503 25.9023 71.0857 26.2262 71.2799C26.7122 71.8626 27.5221 71.8626 28.1701 71.2799ZM29.79 70.1145C29.79 70.8914 29.466 71.6683 28.98 72.251C28.4941 72.8337 27.8461 73.2221 27.1982 73.2221C26.5502 73.2221 25.9023 72.8337 25.4163 72.251C24.4444 71.0857 24.4444 69.1434 25.4163 67.9781C25.9023 67.3954 26.5502 67.007 27.1982 67.007C27.8461 67.007 28.4941 67.3954 28.98 67.9781C29.466 68.3665 29.79 69.1434 29.79 70.1145ZM22.1766 80.2142C21.6906 80.7968 21.0426 81.1853 20.3947 81.1853C19.7467 81.1853 19.0988 80.991 18.6128 80.4084C18.1269 79.8257 17.8029 79.0488 17.8029 78.2719C17.8029 77.495 18.1269 76.7181 18.6128 76.1355C19.5848 74.9701 21.2046 74.9701 22.1766 76.1355C22.6625 76.7181 22.9865 77.495 22.9865 78.2719C22.9865 79.0488 22.6625 79.8257 22.1766 80.2142ZM20.3947 79.8257C21.2046 79.8257 21.8526 79.0488 21.8526 78.2719C21.8526 77.8835 21.6906 77.3008 21.5286 77.1066C21.0426 76.5239 20.0707 76.5239 19.5848 77.1066C19.2608 77.495 19.0988 77.8835 19.0988 78.2719C19.0988 78.6604 19.2608 79.243 19.5848 79.4373C19.7467 79.6315 20.0707 79.8257 20.3947 79.8257ZM11.9713 72.251C10.9994 71.0857 10.9994 69.1434 11.9713 67.9781C12.9433 66.8128 14.5631 66.8128 15.5351 67.9781C16.021 68.5608 16.345 69.3377 16.345 70.1145C16.345 71.8626 15.2111 73.2221 13.7532 73.2221C13.1053 73.0279 12.4573 72.8337 11.9713 72.251ZM12.2953 70.1145C12.2953 70.503 12.4573 71.0857 12.6193 71.2799C12.9433 71.6683 13.4292 71.8626 13.7532 71.8626C14.5631 71.8626 15.2111 71.0857 15.2111 70.3088C15.2111 69.9203 15.0491 69.3377 14.8871 69.1434C14.5631 68.755 14.2392 68.5608 13.9152 68.5608C12.9433 68.3665 12.2953 69.1434 12.2953 70.1145Z" fill="#FDFDFD"/>
<path fill-rule="evenodd" clip-rule="evenodd" d="M18.7748 70.1145C18.7748 71.0856 18.6128 71.8625 18.2888 72.6394C18.9368 72.251 19.7467 72.0567 20.3947 72.0567C21.2046 72.0567 21.8525 72.251 22.5005 72.6394C22.1765 71.8625 22.0145 70.8914 22.0145 70.1145C22.0145 69.1434 22.1765 68.3665 22.5005 67.5896C21.8525 67.9781 21.0426 68.1723 20.3947 68.1723C19.5847 68.1723 18.9368 67.9781 18.2888 67.5896C18.6128 68.3665 18.7748 69.1434 18.7748 70.1145ZM13.7532 74.7759C15.859 74.7759 17.6409 72.6394 17.6409 70.1145C17.6409 67.5896 15.859 65.4532 13.7532 65.4532V64.0936C14.5631 64.0936 15.2111 64.2878 15.859 64.6763C15.535 63.8994 15.373 62.9283 15.373 62.1514H16.507C16.507 64.6763 18.1268 66.8127 20.2327 66.8127C20.2327 66.8127 20.2327 66.8127 20.3947 66.8127C22.5005 66.8127 24.2824 64.8705 24.2824 62.3456V62.1514H25.4163C25.4163 63.1225 25.2543 63.8994 24.9303 64.6763C25.5783 64.2878 26.3882 64.0936 27.0361 64.0936V65.4532C24.9303 65.4532 23.1484 67.5896 23.1484 70.1145C23.1484 72.6394 24.7683 74.7759 26.8742 74.7759C26.8742 74.7759 26.8742 74.7759 27.0361 74.7759V76.1354C26.2262 76.1354 25.5783 75.9412 24.9303 75.5528C25.2543 76.3297 25.4163 77.3008 25.4163 78.0777H24.2824C24.2824 75.5528 22.5005 73.4163 20.3947 73.4163C18.2888 73.4163 16.507 75.747 16.507 78.2719H15.373C15.373 77.3008 15.535 76.5239 15.859 75.747C15.2111 76.1354 14.5631 76.3297 13.7532 76.3297V74.7759Z" fill="#FDFDFD"/>
<path d="M20.8806 16.3153V24.2784H23.3104V26.4149H19.0988H16.6689V24.2784H19.0988V16.3153H16.6689V14.373H20.8806H23.3104V16.5095H20.8806V16.3153Z" fill="#FFF47E"/>
<path d="M32.0578 14.373V18.2575L29.628 26.4149H28.0081L25.5783 18.2575V14.373H27.3602V17.8691L28.98 23.1131L30.5999 17.8691V14.373H32.0578Z" fill="#FFF47E"/>
<path d="M36.1075 16.3153V19.0344H40.4812V21.1709H36.1075V24.4726H40.9671V26.6091H34.3257V21.3651V16.3153V14.373H40.9671V16.5095H36.1075V16.3153Z" fill="#FFF47E"/>
<path d="M45.0168 22.3358V22.9185C45.0168 23.6954 45.5027 24.2781 46.1507 24.2781H47.1226C47.7706 24.2781 48.2565 23.8896 48.2565 23.1127C48.2565 20.9763 43.5589 20.7821 43.5589 17.286C43.5589 15.538 44.6928 14.1785 46.3127 14.1785H46.9606C48.5805 14.1785 49.7144 15.7323 49.7144 17.4803V17.8687H47.9326V17.6745C47.9326 16.8976 47.4466 16.3149 46.7986 16.3149H46.1507C45.5027 16.3149 45.0168 16.7034 45.0168 17.286C45.0168 18.8398 49.7144 19.4225 49.7144 23.1127C49.7144 24.8607 48.4185 26.2203 46.9606 26.2203H46.1507C44.5308 26.2203 43.3969 24.6665 43.3969 22.9185V22.3358H45.0168Z" fill="#FFF47E"/>
<path fill-rule="evenodd" clip-rule="evenodd" d="M84.7037 13.9842V11.6535H77.5762V13.9842H80.168V22.53H77.5762V24.6665H84.7037V22.53H82.1119V13.9842H84.7037ZM92.479 11.6535V20.3936L89.7253 11.6535H87.1335V24.6665H89.0773V15.9264L91.8311 24.6665H94.2609V11.6535H92.479ZM100.902 11.6535H96.6907V24.6665H100.902C102.522 24.6665 103.818 23.1127 103.818 21.1704V15.3438C103.98 13.4015 102.684 11.6535 100.902 11.6535C101.064 11.6535 101.064 11.6535 100.902 11.6535ZM102.036 21.1704C102.036 21.9473 101.55 22.53 100.902 22.53H98.6346V13.9842H100.902C101.55 13.9842 102.036 14.5669 102.036 15.1495V21.1704ZM110.46 24.6665C112.08 24.6665 113.375 23.1127 113.375 21.1704V15.3438C113.375 13.4015 112.08 11.8477 110.46 11.8477C110.46 11.8477 110.46 11.8477 110.298 11.8477H109.326C107.706 11.8477 106.41 13.4015 106.41 15.3438V21.1704C106.41 23.1127 107.706 24.8607 109.326 24.8607L110.46 24.6665ZM110.46 22.3358H109.326C108.678 22.3358 108.192 21.7531 108.192 20.9762V15.1495C108.192 14.3726 108.678 13.79 109.164 13.79H110.46C111.108 13.79 111.594 14.3726 111.594 14.9553C111.594 14.9553 111.594 14.9553 111.594 15.1495V20.9762C111.594 21.7531 111.108 22.3358 110.46 22.3358C110.622 22.3358 110.622 22.3358 110.46 22.3358ZM121.151 11.6535V20.3936L118.397 11.6535H115.805V24.6665H117.749V15.9264L120.503 24.6665H123.095V11.6535H121.151ZM132.652 13.9842V11.6535H125.524V24.6665H132.652V22.53H127.468V19.034H132.004V16.7033H127.468V13.9842H132.652ZM135.082 20.3936V20.9762C135.082 22.9185 136.378 24.6665 138.16 24.6665H139.131C140.751 24.6665 142.047 23.3069 142.209 21.3647C142.209 21.3647 142.209 21.3647 142.209 21.1704C142.209 17.286 137.188 16.5091 137.188 14.9553C137.188 14.3726 137.512 13.9842 138.322 13.9842H138.969C139.617 13.9842 140.103 14.5669 140.103 15.3438V15.7322H142.047V15.3438C142.047 13.4015 140.751 11.6535 138.969 11.6535H138.322C136.864 11.4593 135.406 12.8189 135.244 14.5669C135.244 14.7611 135.244 14.7611 135.244 14.9553C135.244 18.6455 140.427 18.8398 140.427 21.1704C140.427 21.9473 139.941 22.53 139.293 22.3358H138.322C137.674 22.3358 137.188 21.7531 137.188 20.9762V20.3936H135.082ZM151.766 13.9842V11.6535H144.639V13.9842H147.231V22.53H144.639V24.6665H151.766V22.53H149.175V13.9842H151.766ZM158.732 11.6535H156.95L154.196 20.3936V24.6665H155.978V21.9473H159.542V24.6665H161.486V20.3936L158.732 11.6535ZM157.76 15.1495L159.056 19.6167H156.302C156.464 19.8109 157.76 15.1495 157.76 15.1495ZM84.7037 33.9892V31.8527H77.5762V44.8657H84.7037V42.7292H79.5201V39.2332H84.2177V36.9025H79.5201V33.9892H84.7037ZM92.479 31.8527V35.543L90.8592 41.1754L89.2393 35.543V31.8527H87.2955V35.9314L90.0492 44.6714H91.8311L94.5849 35.9314V31.8527H92.479ZM103.818 33.9892V31.8527H96.8527V44.8657H103.98V42.7292H98.7966V39.2332H103.494V36.9025H98.7966V33.9892H103.818ZM111.594 31.8527V40.5928L108.84 31.8527H106.41V44.6714H108.192V35.9314L110.946 44.6714H113.537V31.6585L111.594 31.8527ZM82.9218 52.0519L81.1399 56.7133L79.3581 52.0519H77.5762V65.0649H79.5201V57.1017L80.654 60.2093H81.7879L82.9218 57.1017V65.0649H84.8656V52.0519H82.9218ZM91.6691 52.0519H89.8873L87.1335 60.792V65.0649H89.0773V62.3457H92.479V65.0649H94.2609V60.792L91.6691 52.0519ZM90.6972 55.5479L91.9931 60.0151H89.2393L90.6972 55.5479ZM102.036 52.0519V60.792L99.2825 52.0519H96.6907V65.0649H98.4726V56.3248L101.226 65.0649H103.656V52.0519H102.036ZM110.946 52.0519H109.164L106.41 60.792V65.0649H108.192V62.3457H111.594V65.0649H113.537V60.792L110.946 52.0519ZM109.974 55.5479L111.27 60.0151H108.516L109.974 55.5479ZM123.095 56.5191V55.5479C123.095 53.6057 121.799 52.0519 120.179 52.0519H118.883C117.263 52.0519 115.967 53.6057 115.967 55.5479V61.3746C115.967 63.3169 117.263 64.8707 118.883 64.8707H120.179C121.799 64.8707 123.095 63.3169 123.095 61.3746V57.8786H119.207V60.2093H121.313V61.3746C121.313 62.1515 120.827 62.7342 120.179 62.7342H118.883C118.235 62.7342 117.749 62.1515 117.749 61.3746V55.5479C117.749 54.771 118.235 54.1884 118.721 54.1884H120.017C120.665 54.1884 120.989 54.771 121.151 55.3537C121.151 55.3537 121.151 55.3537 121.151 55.5479V56.5191H123.095ZM132.652 54.1884V52.0519H125.524V65.0649H132.652V62.7342H127.468V59.2382H132.004V57.1017H127.468V54.1884H132.652V54.1884ZM140.427 52.0519L138.645 56.7133L136.864 52.0519H135.082V65.0649H136.864V57.1017L137.998 60.2093H138.969L140.103 57.1017V65.0649H141.885V52.0519H140.427ZM151.766 54.1884V52.0519H144.639V65.0649H151.766V62.7342H146.583V59.2382H151.281V57.1017H146.583V54.1884H151.766V54.1884ZM159.542 52.0519V60.792L156.788 52.0519H154.196V65.0649H155.978V56.3248L158.732 65.0649H161.324V52.0519H159.542ZM77.5762 80.7969V81.3796C77.5762 83.3218 78.8721 85.0698 80.654 85.0698H81.7879C83.4078 85.0698 84.7037 83.5161 84.7037 81.7681C84.7037 77.8836 79.5201 77.1067 79.5201 75.5529C79.5201 74.9702 80.006 74.5818 80.654 74.5818H81.4639C82.1119 74.5818 82.5978 75.1645 82.5978 75.9414V76.3298H84.3797V75.7471C84.3797 73.8049 83.0838 72.0569 81.3019 72.0569H80.492C79.0341 71.8627 77.5762 73.2222 77.4142 74.9702V75.1645C77.4142 78.8547 82.4358 79.0489 82.4358 81.3796C82.4358 82.1565 81.9499 82.5449 81.3019 82.5449H80.33C79.682 82.5449 79.1961 81.9623 79.1961 81.1854V80.6027L77.5762 80.7969ZM94.2609 72.0569H92.479V81.5738C92.479 82.3507 91.9931 82.9334 91.3451 82.9334H90.0492C89.4013 82.9334 88.9153 82.3507 88.9153 81.5738V72.0569H86.9715V81.5738C86.9715 83.5161 88.2674 85.0698 89.8873 85.0698H91.1831C92.803 85.0698 94.0989 83.5161 94.0989 81.5738C94.2609 81.5738 94.2609 72.0569 94.2609 72.0569ZM122.609 31.8527H115.481V33.9892H118.073V44.6714H119.855V33.9892H122.447V31.8527H122.609ZM171.043 52.0519H163.916V54.1884H166.507V64.8707H168.289V54.1884H170.881C171.043 54.1884 171.043 52.0519 171.043 52.0519ZM103.008 72.0569L101.226 76.7183L99.6065 72.0569H97.6626V85.0698H99.6065V77.1067L100.74 80.2143H101.712L102.846 77.1067V85.0698H104.628V72.0569H103.008ZM113.537 72.0569L111.756 76.524L109.974 72.0569H108.192V85.0698H110.136V77.1067L111.27 80.2143H112.242L113.375 77.1067V85.0698H115.157V72.0569H113.537ZM125.524 74.3876V72.2511H118.397V74.3876H120.989V82.9334H118.397V85.0698H125.524V82.9334H122.933V74.3876H125.524ZM135.082 71.8627H127.954V74.1934H130.546V84.8756H132.49V74.1934H135.082V71.8627Z" fill="white"/>
</svg>
