<svg width="295" height="779" viewBox="0 0 295 779" fill="none" xmlns="http://www.w3.org/2000/svg">
<path fill-rule="evenodd" clip-rule="evenodd" d="M190.78 597.041L242.471 626.141V342.439L190.78 313.34V597.041ZM-156.279 567.942L-8.59472 495.199L139.09 567.942V291.518L-8.59472 218.775L-156.279 291.518V567.942ZM-303.964 306.068L-193.201 247.874L-75.0546 189.68L-156.279 153.308V0.544434H-104.589V116.937L-23.3641 160.581L57.8652 116.937V0.544434H116.938V153.308L43.0958 189.68L161.242 247.874L294.157 313.34V713.429L183.394 655.235V778.9H124.321V626.141L-23.3641 553.397L-171.049 626.141V778.9H-222.739V655.235L-333.503 713.429V313.34L-303.964 306.068ZM-207.97 320.617L-267.043 342.439V618.864L-215.352 589.769V320.617H-207.97Z" fill="white" fill-opacity="0.1"/>
</svg>
